<svg width="26" height="26" viewBox="0 0 26 26" fill="none" xmlns="http://www.w3.org/2000/svg">
<path d="M13 13.8667C12.7701 13.8667 12.5497 13.958 12.3871 14.1205C12.2246 14.283 12.1333 14.5035 12.1333 14.7333C12.1333 14.9632 12.2246 15.1836 12.3871 15.3462C12.5497 15.5087 12.7701 15.6 13 15.6C13.2298 15.6 13.4503 15.5087 13.6128 15.3462C13.7753 15.1836 13.8666 14.9632 13.8666 14.7333C13.8666 14.5035 13.7753 14.283 13.6128 14.1205C13.4503 13.958 13.2298 13.8667 13 13.8667Z" fill="black"/>
<path fill-rule="evenodd" clip-rule="evenodd" d="M20.8 10.7311L13.8667 7.2644V5.2H19.0667V0H12.1333V7.2644L5.2 10.7311V13.8667H1.73333V24.2667H0V26H10.4V19.0667H15.6V26H26V24.2667H24.2667V13.8667H20.8V10.7311ZM22.5333 24.2667V15.6H20.8V24.2667H22.5333ZM5.2 24.2667H3.46667V15.6H5.2V24.2667ZM10.4 14.7333C10.4 14.0438 10.6739 13.3825 11.1615 12.8949C11.6491 12.4073 12.3104 12.1333 13 12.1333C13.6896 12.1333 14.3509 12.4073 14.8385 12.8949C15.3261 13.3825 15.6 14.0438 15.6 14.7333C15.6 15.4229 15.3261 16.0842 14.8385 16.5718C14.3509 17.0594 13.6896 17.3333 13 17.3333C12.3104 17.3333 11.6491 17.0594 11.1615 16.5718C10.6739 16.0842 10.4 15.4229 10.4 14.7333Z" fill="black"/>
<path d="M13.8666 26V20.8H12.1333V26H13.8666Z" fill="black"/>
</svg>
