<svg width="98" height="94" viewBox="0 0 98 94" fill="none" xmlns="http://www.w3.org/2000/svg">
<path d="M95.875 84.5H88.0625V34.5C88.0625 34.0856 87.8979 33.6882 87.6049 33.3951C87.3118 33.1021 86.9144 32.9375 86.5 32.9375H63.0625V1.6875C63.0625 1.2731 62.8979 0.875671 62.6049 0.582646C62.3118 0.28962 61.9144 0.125 61.5 0.125H36.5C36.0856 0.125 35.6882 0.28962 35.3951 0.582646C35.1021 0.875671 34.9375 1.2731 34.9375 1.6875V20.4375H11.5C11.0856 20.4375 10.6882 20.6021 10.3951 20.8951C10.1021 21.1882 9.9375 21.5856 9.9375 22V84.5H2.125C1.7106 84.5 1.31317 84.6646 1.02015 84.9576C0.72712 85.2507 0.5625 85.6481 0.5625 86.0625V92.3125C0.5625 92.7269 0.72712 93.1243 1.02015 93.4174C1.31317 93.7104 1.7106 93.875 2.125 93.875H95.875C96.2894 93.875 96.6868 93.7104 96.9799 93.4174C97.2729 93.1243 97.4375 92.7269 97.4375 92.3125V86.0625C97.4375 85.6481 97.2729 85.2507 96.9799 84.9576C96.6868 84.6646 96.2894 84.5 95.875 84.5ZM63.0625 36.0625H84.9375V84.5H63.0625V36.0625ZM38.0625 3.25H59.9375V84.5H38.0625V3.25ZM13.0625 23.5625H34.9375V84.5H13.0625V23.5625ZM94.3125 90.75H3.6875V87.625H94.3125V90.75Z" fill="black"/>
<path d="M47.4375 9.5V20.4375C47.4375 20.8519 47.6021 21.2493 47.8951 21.5424C48.1882 21.8354 48.5856 22 49 22C49.4144 22 49.8118 21.8354 50.1049 21.5424C50.3979 21.2493 50.5625 20.8519 50.5625 20.4375V7.9375C50.5625 7.5231 50.3979 7.12567 50.1049 6.83265C49.8118 6.53962 49.4144 6.375 49 6.375H47.4375C47.0231 6.375 46.6257 6.53962 46.3326 6.83265C46.0396 7.12567 45.875 7.5231 45.875 7.9375C45.875 8.3519 46.0396 8.74933 46.3326 9.04235C46.6257 9.33538 47.0231 9.5 47.4375 9.5Z" fill="black"/>
<path d="M70.875 51.6875C70.4606 51.6875 70.0632 51.8521 69.7701 52.1451C69.4771 52.4382 69.3125 52.8356 69.3125 53.25C69.3125 53.6644 69.4771 54.0618 69.7701 54.3549C70.0632 54.6479 70.4606 54.8125 70.875 54.8125H77.125C77.5394 54.8125 77.9368 54.6479 78.2299 54.3549C78.5229 54.0618 78.6875 53.6644 78.6875 53.25V40.75C78.6875 40.3356 78.5229 39.9382 78.2299 39.6451C77.9368 39.3521 77.5394 39.1875 77.125 39.1875H70.875C70.4606 39.1875 70.0632 39.3521 69.7701 39.6451C69.4771 39.9382 69.3125 40.3356 69.3125 40.75C69.3125 41.1644 69.4771 41.5618 69.7701 41.8549C70.0632 42.1479 70.4606 42.3125 70.875 42.3125H75.5625V45.4375H72.4375C72.0231 45.4375 71.6257 45.6021 71.3326 45.8951C71.0396 46.1882 70.875 46.5856 70.875 47C70.875 47.4144 71.0396 47.8118 71.3326 48.1049C71.6257 48.3979 72.0231 48.5625 72.4375 48.5625H75.5625V51.6875H70.875Z" fill="black"/>
<path d="M27.125 26.6875H20.875C20.4606 26.6875 20.0632 26.8521 19.7701 27.1451C19.4771 27.4382 19.3125 27.8356 19.3125 28.25C19.3125 28.6644 19.4771 29.0618 19.7701 29.3549C20.0632 29.6479 20.4606 29.8125 20.875 29.8125H25.5625V30.7279L19.7701 36.5201C19.625 36.6652 19.5099 36.8375 19.4314 37.027C19.3529 37.2166 19.3125 37.4198 19.3125 37.625V40.75C19.3125 41.1644 19.4771 41.5618 19.7701 41.8549C20.0632 42.1479 20.4606 42.3125 20.875 42.3125H27.125C27.5394 42.3125 27.9368 42.1479 28.2299 41.8549C28.5229 41.5618 28.6875 41.1644 28.6875 40.75C28.6875 40.3356 28.5229 39.9382 28.2299 39.6451C27.9368 39.3521 27.5394 39.1875 27.125 39.1875H22.4375V38.2721L28.2299 32.4799C28.375 32.3348 28.4901 32.1625 28.5686 31.973C28.6471 31.7834 28.6875 31.5802 28.6875 31.375V28.25C28.6875 27.8356 28.5229 27.4382 28.2299 27.1451C27.9368 26.8521 27.5394 26.6875 27.125 26.6875Z" fill="black"/>
</svg>
