<svg width="100" height="92" viewBox="0 0 100 92" fill="none" xmlns="http://www.w3.org/2000/svg">
<path d="M45.8322 91.768C20.5621 91.768 0 71.2067 0 45.9366C0 20.6666 20.5621 0.104492 45.8322 0.104492C54.6194 0.104492 63.1687 2.60838 70.556 7.3499C72.0063 8.28371 72.4312 10.2169 71.4974 11.6711C70.5605 13.1252 68.6311 13.5455 67.177 12.6125C60.8021 8.5164 53.4194 6.3543 45.8322 6.3543C24.0074 6.3543 6.2498 24.1119 6.2498 45.9366C6.2498 67.7606 24.0074 85.5182 45.8322 85.5182C67.6561 85.5182 85.4137 67.7606 85.4137 45.9366C85.4137 44.6321 85.3512 43.3404 85.2306 42.0702C85.0643 40.3491 86.3224 38.824 88.0389 38.6577C89.7639 38.499 91.2844 39.7494 91.4515 41.466C91.5926 42.9369 91.6636 44.4284 91.6636 45.9366C91.6636 71.2067 71.1022 91.768 45.8322 91.768Z" fill="black"/>
<path d="M51.0398 56.3528C50.2402 56.3528 49.4399 56.0484 48.8319 55.4365L30.0825 36.6871C28.8618 35.4657 28.8618 33.4867 30.0825 32.266C31.3032 31.0453 33.2822 31.0453 34.5028 32.266L51.0444 48.8075L94.6633 5.18784C95.8847 3.96717 97.8637 3.96717 99.0844 5.18784C100.305 6.4085 100.305 8.38751 99.0844 9.60817L53.2522 55.4403C52.6396 56.0484 51.8401 56.3528 51.0398 56.3528Z" fill="black"/>
</svg>
