<svg width="32" height="19" viewBox="0 0 32 19" fill="none" xmlns="http://www.w3.org/2000/svg">
<path d="M16 0.779999L15.687 0.874999L3.18697 5.063L0.344971 6L1.99997 6.53V15.28C1.40297 15.627 0.999971 16.26 0.999971 17C0.999971 17.5304 1.21068 18.0391 1.58576 18.4142C1.96083 18.7893 2.46954 19 2.99997 19C3.5304 19 4.03911 18.7893 4.41418 18.4142C4.78926 18.0391 4.99997 17.5304 4.99997 17C4.99997 16.26 4.59697 15.627 3.99997 15.28V7.22L5.99997 7.875V13C5.99997 13.82 6.49997 14.5 7.09397 14.97C7.68797 15.437 8.42597 15.767 9.31197 16.063C11.086 16.653 13.424 17 16 17C18.576 17 20.914 16.654 22.688 16.062C23.574 15.767 24.312 15.437 24.906 14.969C25.5 14.5 26 13.82 26 13V7.875L28.813 6.937L31.655 6L28.812 5.062L16.312 0.874999L16 0.779999ZM16 2.875L25.375 6L16 9.125L6.62497 6L16 2.875ZM7.99997 8.563L15.688 11.125L16 11.219L16.313 11.124L24 8.562V13C24 13.01 24.004 13.126 23.687 13.375C23.371 13.625 22.804 13.94 22.062 14.188C20.58 14.681 18.395 15 16 15C13.605 15 11.42 14.682 9.93697 14.187C9.19697 13.94 8.62897 13.624 8.31297 13.375C7.99497 13.125 7.99997 13.01 7.99997 13V8.562V8.563Z" fill="black"/>
</svg>
