<svg width="36" height="34" viewBox="0 0 36 34" fill="none" xmlns="http://www.w3.org/2000/svg">
<path d="M4.5 6.375V8.5H29.25V25.5H13.5V27.625H33.75V25.5H31.5V6.375H4.5ZM9.00225 9.5625C7.80984 9.56642 6.66743 10.0154 5.82405 10.8115C4.98068 11.6076 4.50474 12.6863 4.5 13.8125C4.5 16.1489 6.5295 18.0625 9.00225 18.0625C10.1941 18.058 11.3357 17.6087 12.1782 16.8126C13.0207 16.0165 13.4959 14.9381 13.5 13.8125C13.5 11.4782 11.4727 9.5625 9.00225 9.5625ZM15.75 10.625V12.75H21.375V10.625H15.75ZM23.625 10.625V12.75H27V10.625H23.625ZM9.00225 11.6875C10.2555 11.6875 11.25 12.6257 11.25 13.8125C11.25 15.0025 10.2566 15.9375 9.00225 15.9375C7.74225 15.9375 6.75 15.0025 6.75 13.8125C6.75 12.6257 7.74337 11.6875 9.00225 11.6875ZM15.75 14.875V17H27V14.875H15.75ZM4.5 19.125V27.625H6.75V21.25H10.125V27.625H12.375V21.9491L14.697 23.1094C15.3551 23.4387 16.146 23.4377 16.803 23.1094V23.1115L20.7743 21.1278L19.7246 19.2472L15.7522 21.2309L12.2692 19.4947C11.7832 19.2522 11.2418 19.1253 10.692 19.125H4.5Z" fill="black"/>
</svg>
