<svg width="120" height="96" viewBox="0 0 120 96" fill="none" xmlns="http://www.w3.org/2000/svg">
<path d="M99.9817 31.5789C94.4356 9.22622 72.0292 -4.34545 49.9352 1.26559C32.6693 5.65062 20.1323 20.748 18.8406 38.7104C6.58103 40.7558 -1.71845 52.4684 0.303279 64.8715C2.10051 75.898 11.5443 83.9731 22.5902 83.9288H41.3381V76.3418H22.5902C14.3068 76.3418 7.59178 69.5481 7.59178 61.1679C7.59178 52.7876 14.3068 45.9939 22.5902 45.9939C24.6611 45.9939 26.3397 44.2956 26.3397 42.2004C26.321 23.3446 41.4147 8.0436 60.0523 8.02487C76.1859 8.00851 90.0741 19.5478 93.195 35.5618C93.5031 37.1608 94.7857 38.3823 96.3821 38.5966C106.633 40.0734 113.759 49.6778 112.3 60.0485C110.989 69.3611 103.13 76.2949 93.8324 76.3418H78.834V83.9288H93.8324C108.328 83.8844 120.044 71.9596 120 57.294C119.963 45.0861 111.704 34.4759 99.9817 31.5789Z" fill="#3F51B5" fill-opacity="0.4"/>
<path d="M57.4232 47.0944L42.4248 62.2683L47.7117 67.6171L56.3358 58.9301V95.3095H63.835V58.9301L72.4216 67.6171L77.7085 62.2683L62.7101 47.0944C61.2475 45.6235 58.8858 45.6235 57.4232 47.0944Z" fill="#3F51B5" fill-opacity="0.4"/>
</svg>
